<svg width="48" height="41" viewBox="0 0 48 41" fill="none" xmlns="http://www.w3.org/2000/svg">
<rect x="0.5" y="0.0605469" width="46.9227" height="40.8787" rx="2" fill="#FE1818"/>
<path fill-rule="evenodd" clip-rule="evenodd" d="M21.516 13.9393L15.5 12.8793L15.674 11.8933C15.6855 11.8286 15.7096 11.7668 15.7449 11.7114C15.7803 11.6561 15.8262 11.6082 15.8801 11.5706C15.9339 11.533 15.9947 11.5064 16.0588 11.4922C16.123 11.4781 16.1893 11.4768 16.254 11.4883L30.153 13.9393H30.241H30.154L32.009 14.2663C32.0738 14.2776 32.1357 14.3017 32.1912 14.337C32.2466 14.3723 32.2946 14.4182 32.3323 14.4721C32.37 14.5259 32.3968 14.5867 32.4109 14.6509C32.4251 14.7152 32.4265 14.7815 32.415 14.8463L32.241 15.8303L30.151 15.4623L29.351 29.0563C29.3212 29.5652 29.0982 30.0434 28.7276 30.3934C28.357 30.7434 27.8667 30.9386 27.357 30.9393H20.128C19.6177 30.9394 19.1267 30.7445 18.7555 30.3944C18.3843 30.0444 18.1608 29.5657 18.131 29.0563L17.332 15.4393H30.022L21.516 13.9393ZM20.742 17.9393L21.242 26.9393H22.742L22.342 17.9393H20.742ZM25.242 17.9393L24.742 26.9393H26.242L26.742 17.9393H25.242ZM22.596 10.0683L26.536 10.7623C26.6007 10.7738 26.6625 10.7979 26.7179 10.8332C26.7732 10.8686 26.8211 10.9145 26.8587 10.9684C26.8963 11.0222 26.9229 11.083 26.9371 11.1471C26.9512 11.2113 26.9525 11.2776 26.941 11.3423L26.767 12.3263L21.843 11.4583L22.017 10.4733C22.0285 10.4086 22.0526 10.3468 22.0879 10.2914C22.1233 10.2361 22.1692 10.1882 22.2231 10.1506C22.2769 10.113 22.3377 10.0864 22.4018 10.0722C22.466 10.0581 22.5313 10.0568 22.596 10.0683Z" fill="#FFFEFD"/>
</svg>
