<svg width="48" height="41" viewBox="0 0 48 41" fill="none" xmlns="http://www.w3.org/2000/svg">
<g filter="url(#filter0_b_180_3161)">
<rect x="0.5" width="47" height="41" rx="2" fill="#D7CDCD" fill-opacity="0.35"/>
</g>
<path d="M18.0985 27.6919H15.3725C14.6107 27.6919 13.88 27.3893 13.3413 26.8506C12.8026 26.3119 12.5 25.5812 12.5 24.8194V19.0744C12.5 18.3126 12.8026 17.582 13.3413 17.0433C13.88 16.5046 14.6107 16.2019 15.3725 16.2019H32.6275C33.3893 16.2019 34.12 16.5046 34.6587 17.0433C35.1974 17.582 35.5 18.3126 35.5 19.0744V24.8194C35.5 25.5812 35.1974 26.3119 34.6587 26.8506C34.12 27.3893 33.3893 27.6919 32.6275 27.6919H29.755" stroke="black" stroke-width="1.3" stroke-linecap="round" stroke-linejoin="round"/>
<path d="M18.2656 13.3288V10.4564C18.2656 10.0754 18.4169 9.71012 18.6863 9.44077C18.9556 9.17142 19.321 9.02011 19.7019 9.02011H28.3193C28.7002 9.02011 29.0656 9.17142 29.3349 9.44077C29.6043 9.71012 29.7556 10.0754 29.7556 10.4564V13.3288M18.2656 30.5638V23.3811H29.7556V30.5638C29.7556 30.9447 29.6043 31.31 29.3349 31.5793C29.0656 31.8487 28.7002 32 28.3193 32H19.7019C19.321 32 18.9556 31.8487 18.6863 31.5793C18.4169 31.31 18.2656 30.9447 18.2656 30.5638Z" stroke="black" stroke-width="1.3" stroke-linecap="round" stroke-linejoin="round"/>
<path d="M33.3451 19.792C33.3451 18.9988 32.7021 18.3558 31.9089 18.3558C31.1157 18.3558 30.4727 18.9988 30.4727 19.792C30.4727 20.5852 31.1157 21.2283 31.9089 21.2283C32.7021 21.2283 33.3451 20.5852 33.3451 19.792Z" fill="black"/>
<defs>
<filter id="filter0_b_180_3161" x="-3.5" y="-4" width="55" height="49" filterUnits="userSpaceOnUse" color-interpolation-filters="sRGB">
<feFlood flood-opacity="0" result="BackgroundImageFix"/>
<feGaussianBlur in="BackgroundImageFix" stdDeviation="2"/>
<feComposite in2="SourceAlpha" operator="in" result="effect1_backgroundBlur_180_3161"/>
<feBlend mode="normal" in="SourceGraphic" in2="effect1_backgroundBlur_180_3161" result="shape"/>
</filter>
</defs>
</svg>
